<svg width="512" height="512" viewBox="0 0 512 512" fill="none" xmlns="http://www.w3.org/2000/svg">
<path fill-rule="evenodd" clip-rule="evenodd" d="M107.428 76.8972C107.428 101.279 127.193 121.045 151.576 121.045H306.689V104.34H151.576C136.419 104.34 124.132 92.0536 124.132 76.8972C124.132 61.7407 136.419 49.4539 151.576 49.4539H306.689V32.7494H151.576C127.193 32.7494 107.428 52.515 107.428 76.8972Z" fill="black"/>
<path fill-rule="evenodd" clip-rule="evenodd" d="M83.5645 220.079C83.5645 244.461 103.33 264.227 127.712 264.227H282.826V247.522H127.712C112.556 247.522 100.269 235.235 100.269 220.079C100.269 204.923 112.556 192.636 127.712 192.636H282.826V175.931H127.712C103.33 175.931 83.5645 195.697 83.5645 220.079Z" fill="black"/>
<path fill-rule="evenodd" clip-rule="evenodd" d="M83.5645 291.67C83.5645 316.052 103.33 335.818 127.712 335.818H306.69V319.113H127.712C112.556 319.113 100.269 306.827 100.269 291.67C100.269 276.514 112.556 264.227 127.712 264.227L306.69 264.227V247.522L127.712 247.522C103.33 247.522 83.5645 267.288 83.5645 291.67Z" fill="black"/>
<path fill-rule="evenodd" clip-rule="evenodd" d="M83.5645 148.488C83.5645 172.87 103.33 192.636 127.712 192.636H282.826V175.931H127.712C112.556 175.931 100.269 163.645 100.269 148.488C100.269 133.332 112.556 121.045 127.712 121.045H282.826V104.341H127.712C103.33 104.341 83.5645 124.106 83.5645 148.488Z" fill="black"/>
<path fill-rule="evenodd" clip-rule="evenodd" d="M393.844 401.231C393.344 380.821 398.048 359.52 409.872 330.629L394.412 324.302C382.09 354.409 376.568 378.103 377.145 401.641C377.527 417.234 372.896 432.688 364.574 444.05C356.348 455.282 344.751 462.295 330.601 462.295C317.063 462.295 306.241 456.523 303.29 447.236C300.278 437.752 299.18 425.359 300.896 406.574C302.614 387.776 298.765 369.389 306.5 335.605H289.5C281.717 369.598 286.082 385.124 284.261 405.053C282.439 424.995 283.421 439.863 287.37 452.293C293.564 471.791 313.938 479 330.601 479C350.977 479 367.251 468.665 378.051 453.92C388.756 439.305 394.309 420.154 393.844 401.231Z" fill="black"/>
<path fill-rule="evenodd" clip-rule="evenodd" d="M410 330.605L424.781 261.567C431.229 226.101 427.95 189.551 415.293 155.799C403.473 124.279 383.871 96.2609 358.312 74.3528L306.5 32.6053L301.25 47.4438L347.441 87.0359C370.861 107.11 388.822 132.783 399.653 161.665C411.25 192.591 414.254 226.082 408.346 258.579L390.5 334.105L410 330.605Z" fill="black"/>
</svg>
