<svg width="345" height="447" viewBox="0 0 345 447" fill="none" xmlns="http://www.w3.org/2000/svg">
<path fill-rule="evenodd" clip-rule="evenodd" d="M24.4279 402.708C24.4279 378.326 44.1935 358.56 68.5756 358.56H223.689V375.265H68.5756C53.4192 375.265 41.1324 387.552 41.1324 402.708C41.1324 417.865 53.4192 430.151 68.5756 430.151H223.689V446.856H68.5756C44.1935 446.856 24.4279 427.09 24.4279 402.708Z" fill="black"/>
<path fill-rule="evenodd" clip-rule="evenodd" d="M0.564453 259.526C0.564453 235.144 20.3301 215.378 44.7122 215.378H199.826V232.083H44.7122C29.5558 232.083 17.269 244.37 17.269 259.526C17.269 274.683 29.5558 286.969 44.7122 286.969H199.826V303.674H44.7122C20.3301 303.674 0.564453 283.908 0.564453 259.526Z" fill="black"/>
<path fill-rule="evenodd" clip-rule="evenodd" d="M0.564453 187.935C0.564453 163.553 20.3301 143.787 44.7122 143.787H223.69V160.492H44.7122C29.5558 160.492 17.269 172.779 17.269 187.935C17.269 203.092 29.5558 215.378 44.7122 215.378L223.69 215.378V232.083L44.7122 232.083C20.3301 232.083 0.564453 212.317 0.564453 187.935Z" fill="black"/>
<path fill-rule="evenodd" clip-rule="evenodd" d="M0.564453 331.117C0.564453 306.735 20.3301 286.969 44.7122 286.969H199.826V303.674H44.7122C29.5558 303.674 17.269 315.96 17.269 331.117C17.269 346.273 29.5558 358.56 44.7122 358.56H199.826V375.265H44.7122C20.3301 375.265 0.564453 355.499 0.564453 331.117Z" fill="black"/>
<path fill-rule="evenodd" clip-rule="evenodd" d="M310.844 78.374C310.344 98.7844 315.048 120.086 326.872 148.976L311.412 155.303C299.09 125.197 293.568 101.503 294.145 77.9643C294.527 62.3716 289.896 46.917 281.574 35.5556C273.348 24.3236 261.751 17.31 247.601 17.31C234.063 17.31 223.241 23.0826 220.29 32.3693C217.278 41.8537 216.18 54.2466 217.896 73.0316C219.614 91.8295 215.765 110.216 223.5 144H206.5C198.717 110.007 203.082 94.4808 201.261 74.5519C199.439 54.6102 200.421 39.742 204.37 27.3119C210.564 7.81434 230.938 0.605469 247.601 0.605469C267.977 0.605469 284.251 10.94 295.051 25.6849C305.756 40.3004 311.309 59.4516 310.844 78.374Z" fill="black"/>
<path fill-rule="evenodd" clip-rule="evenodd" d="M327 149L341.781 218.038C348.229 253.504 344.95 290.054 332.293 323.806C320.473 355.326 300.871 383.344 275.312 405.252L223.5 447L218.25 432.161L264.441 392.569C287.861 372.495 305.822 346.822 316.653 317.941C328.25 287.014 331.254 253.523 325.346 221.026L307.5 145.5L327 149Z" fill="black"/>
</svg>
